<svg xmlns="http://www.w3.org/2000/svg" viewBox="0 0 800 600" width="800" height="600" preserveAspectRatio="xMidYMid meet" style="width: 100%; height: 100%; transform: translate3d(0px, 0px, 0px);"><defs><clipPath id="__lottie_element_2"><rect width="800" height="600" x="0" y="0"></rect></clipPath></defs><g clip-path="url(#__lottie_element_2)"><g transform="matrix(1.0700000524520874,0,0,1.0700000524520874,351.02288818359375,210.34848022460938)" opacity="1" style="display: block;"><g opacity="1" transform="matrix(1,0,0,1,-17.599000930786133,100.09500122070312)"><path fill="rgb(159,107,65)" fill-opacity="1" d=" M64.15899658203125,-83.96900177001953 C64.15899658203125,-83.96900177001953 -64.15899658203125,-33.52299880981445 -64.15899658203125,-33.52299880981445 C-64.15899658203125,-33.52299880981445 -58.76300048828125,83.96900177001953 -58.76300048828125,83.96900177001953 C-58.76300048828125,83.96900177001953 63.58399963378906,27.45599937438965 63.58399963378906,27.45599937438965 C63.58399963378906,27.45599937438965 64.15899658203125,-83.96900177001953 64.15899658203125,-83.96900177001953z"></path></g><g opacity="1" transform="matrix(1,0,0,1,103.81300354003906,134.7989959716797)"><path fill="rgb(129,77,39)" fill-opacity="1" d=" M63.749000549316406,-65.23999786376953 C63.749000549316406,-65.23999786376953 59.314998626708984,52.32899856567383 59.314998626708984,52.32899856567383 C59.314998626708984,52.32899856567383 -63.749000549316406,118.71199798583984 -63.749000549316406,118.71199798583984 C-63.749000549316406,118.71199798583984 -57.82699966430664,-7.248000144958496 -57.82699966430664,-7.248000144958496 C-57.82699966430664,-7.248000144958496 -57.2140007019043,-118.71199798583984 -57.2140007019043,-118.71199798583984 C-57.2140007019043,-118.71199798583984 63.749000549316406,-65.23999786376953 63.749000549316406,-65.23999786376953z"></path></g><g opacity="1" transform="matrix(1,0,0,1,-21.163000106811523,161.60699462890625)"><path fill="rgb(143,95,55)" fill-opacity="1" d=" M60.560001373291016,-30.915000915527344 C60.560001373291016,-30.915000915527344 60.40700149536133,94.98999786376953 60.40700149536133,94.98999786376953 C60.40700149536133,94.98999786376953 -55.154998779296875,23.170000076293945 -55.154998779296875,23.170000076293945 C-55.154998779296875,23.170000076293945 -60.560001373291016,-94.98999786376953 -60.560001373291016,-94.98999786376953 C-60.560001373291016,-94.98999786376953 -36.04999923706055,-82.2239990234375 -36.04999923706055,-82.2239990234375 C-36.04999923706055,-82.2239990234375 60.560001373291016,-30.915000915527344 60.560001373291016,-30.915000915527344 C60.560001373291016,-30.915000915527344 60.560001373291016,-30.915000915527344 60.560001373291016,-30.915000915527344 C60.560001373291016,-30.915000915527344 60.560001373291016,-30.915000915527344 60.560001373291016,-30.915000915527344z"></path></g><g opacity="1" transform="matrix(1,0,0,1,103.22799682617188,163.13900756835938)"><path fill="rgb(168,118,73)" fill-opacity="1" d=" M-63.83100128173828,-32.44599914550781 C-63.83100128173828,-32.44599914550781 -63.98400115966797,93.45800018310547 -63.98400115966797,93.45800018310547 C-63.98400115966797,93.45800018310547 59.89899826049805,25.010000228881836 59.89899826049805,25.010000228881836 C59.89899826049805,25.010000228881836 63.98400115966797,-93.45800018310547 63.98400115966797,-93.45800018310547 C63.98400115966797,-93.45800018310547 -63.83100128173828,-32.44599914550781 -63.83100128173828,-32.44599914550781z"></path></g><g opacity="1" transform="matrix(1,0,0,1,10.373000144958496,213.80499267578125)"><path fill="rgb(63,63,63)" fill-opacity="1" d=" M1.4470000267028809,-15.597000122070312 C1.2259999513626099,-15.722999572753906 1.0499999523162842,-15.520000457763672 1.0529999732971191,-15.142000198364258 C1.0529999732971191,-15.142000198364258 1.0529999732971191,-14.805999755859375 1.0529999732971191,-14.805999755859375 C-2.8289999961853027,-16.81100082397461 -5.914999961853027,-14.539999961853027 -6.13100004196167,-9.520999908447266 C-6.13100004196167,-9.520999908447266 1.0529999732971191,-5.2179999351501465 1.0529999732971191,-5.2179999351501465 C1.0529999732971191,-5.2179999351501465 1.0529999732971191,1.6679999828338623 1.0529999732971191,1.6679999828338623 C1.0529999732971191,1.6679999828338623 1.0529999732971191,10.36400032043457 1.0529999732971191,10.36400032043457 C1.0089999437332153,11.140999794006348 1.1269999742507935,12.022000312805176 1.3890000581741333,12.85200023651123 C1.6970000267028809,13.82800006866455 2.187000036239624,14.675999641418457 2.739000082015991,15.175000190734863 C3.2920000553131104,15.675000190734863 3.86899995803833,15.788999557495117 4.316999912261963,15.475000381469727 C4.711999893188477,15.197999954223633 4.98199987411499,14.604999542236328 5.067999839782715,13.821999549865723 C5.1539998054504395,13.038999557495117 5.052999973297119,12.112000465393066 4.784999847412109,11.23799991607666 C4.666999816894531,10.845000267028809 4.416999816894531,10.598999977111816 4.229000091552734,10.690999984741211 C4.040999889373779,10.782999992370605 3.986999988555908,11.178000450134277 4.110000133514404,11.569000244140625 C4.267000198364258,12.079000473022461 4.329999923706055,12.656000137329102 4.28000020980835,13.11299991607666 C4.229000091552734,13.569999694824219 4.061999797821045,13.939000129699707 3.8310000896453857,14.10099983215332 C3.571000099182129,14.284000396728516 3.2060000896453857,14.21399974822998 2.880000114440918,13.918999671936035 C2.553999900817871,13.62399959564209 2.242000102996826,13.083000183105469 2.056999921798706,12.498000144958496 C1.8949999809265137,11.984000205993652 1.819000005722046,11.406999588012695 1.8509999513626099,10.930000305175781 C1.8509999513626099,10.904999732971191 1.8550000190734863,10.881999969482422 1.8550000190734863,10.857000350952148 C1.8550000190734863,10.857000350952148 1.8550000190734863,2.1489999294281006 1.8550000190734863,2.1489999294281006 C1.8550000190734863,2.1489999294281006 1.8550000190734863,-4.736999988555908 1.8550000190734863,-4.736999988555908 C1.8550000190734863,-4.736999988555908 9.180999755859375,-0.3490000069141388 9.180999755859375,-0.3490000069141388 C8.963000297546387,-5.699999809265137 5.795000076293945,-11.748000144958496 1.8550000190734863,-14.336999893188477 C1.8550000190734863,-14.336999893188477 1.8550000190734863,-14.66100025177002 1.8550000190734863,-14.66100025177002 C1.8589999675750732,-15.043000221252441 1.6749999523162842,-15.467000007629395 1.4490000009536743,-15.595999717712402 C1.4490000009536743,-15.595999717712402 1.4470000267028809,-15.597000122070312 1.4470000267028809,-15.597000122070312z M11.857999801635742,-8.666000366210938 C11.854000091552734,-6.453999996185303 11.913999557495117,-4.202000141143799 12.03600025177002,-1.9270000457763672 C12.145999908447266,0.12700000405311584 12.317000389099121,2.2679998874664307 12.861000061035156,4.300000190734863 C13.472000122070312,6.579999923706055 14.548999786376953,8.555000305175781 15.704999923706055,9.564000129699707 C15.696999549865723,9.567000389099121 15.692000389099121,9.586000442504883 15.692000389099121,9.611000061035156 C15.692000389099121,9.611000061035156 15.692000389099121,21.77899932861328 15.692000389099121,21.77899932861328 C15.692000389099121,21.77899932861328 12.99899959564209,20.166000366210938 12.99899959564209,20.166000366210938 C12.984000205993652,20.156999588012695 12.970999717712402,20.165000915527344 12.970999717712402,20.184999465942383 C12.970999717712402,20.184999465942383 12.970999717712402,21.64299964904785 12.970999717712402,21.64299964904785 C12.970999717712402,21.663000106811523 12.984000205993652,21.68600082397461 12.99899959564209,21.69499969482422 C12.99899959564209,21.69499969482422 19.281999588012695,25.45800018310547 19.281999588012695,25.45800018310547 C19.297000885009766,25.466999053955078 19.309999465942383,25.458999633789062 19.309999465942383,25.43899917602539 C19.309999465942383,25.43899917602539 19.309999465942383,23.98200035095215 19.309999465942383,23.98200035095215 C19.309999465942383,23.961999893188477 19.297000885009766,23.937999725341797 19.281999588012695,23.929000854492188 C19.281999588012695,23.929000854492188 16.59000015258789,22.316999435424805 16.59000015258789,22.316999435424805 C16.59000015258789,22.316999435424805 16.59000015258789,10.14900016784668 16.59000015258789,10.14900016784668 C16.59000015258789,10.12399959564209 16.583999633789062,10.098999977111816 16.576000213623047,10.086000442504883 C17.73200035095215,10.461999893188477 18.80900001525879,9.777000427246094 19.420000076293945,8.227999687194824 C19.964000701904297,6.8480000495910645 20.135000228881836,4.913000106811523 20.2450008392334,2.990000009536743 C20.367000579833984,0.8610000014305115 20.427000045776367,-1.319000005722046 20.423999786376953,-3.5350000858306885 C20.423999786376953,-3.5350000858306885 16.141000747680664,-6.099999904632568 16.141000747680664,-6.099999904632568 C16.141000747680664,-6.099999904632568 11.857999801635742,-8.666000366210938 11.857999801635742,-8.666000366210938 C11.857999801635742,-8.666000366210938 11.857999801635742,-8.666000366210938 11.857999801635742,-8.666000366210938z M-17.68400001525879,-25.461999893188477 C-17.68400001525879,-25.461999893188477 -19.93000030517578,-21.437999725341797 -19.93000030517578,-21.437999725341797 C-19.937999725341797,-21.423999786376953 -19.917999267578125,-21.391000747680664 -19.902000427246094,-21.381000518798828 C-19.902000427246094,-21.381000518798828 -18.33099937438965,-20.440000534057617 -18.33099937438965,-20.440000534057617 C-18.33099937438965,-20.440000534057617 -18.33099937438965,-0.004999999888241291 -18.33099937438965,-0.004999999888241291 C-18.33099937438965,-0.004999999888241291 -20.391000747680664,-1.2389999628067017 -20.391000747680664,-1.2389999628067017 C-20.409000396728516,-1.25 -20.423999786376953,-1.2400000095367432 -20.423999786376953,-1.2170000076293945 C-20.423999786376953,-1.2170000076293945 -20.423999786376953,1.0049999952316284 -20.423999786376953,1.0049999952316284 C-20.423999786376953,1.027999997138977 -20.409000396728516,1.055999994277954 -20.391000747680664,1.0670000314712524 C-20.391000747680664,1.0670000314712524 -7.4070000648498535,8.843999862670898 -7.4070000648498535,8.843999862670898 C-7.388999938964844,8.854999542236328 -7.374000072479248,8.845000267028809 -7.374000072479248,8.821999549865723 C-7.374000072479248,8.821999549865723 -7.374000072479248,6.599999904632568 -7.374000072479248,6.599999904632568 C-7.374000072479248,6.577000141143799 -7.388999938964844,6.548999786376953 -7.4070000648498535,6.538000106811523 C-7.4070000648498535,6.538000106811523 -9.467000007629395,5.303999900817871 -9.467000007629395,5.303999900817871 C-9.467000007629395,5.303999900817871 -9.467000007629395,-15.130999565124512 -9.467000007629395,-15.130999565124512 C-9.467000007629395,-15.130999565124512 -7.894000053405762,-14.189000129699707 -7.894000053405762,-14.189000129699707 C-7.877999782562256,-14.180000305175781 -7.864999771118164,-14.189000129699707 -7.864999771118164,-14.211000442504883 C-7.864999771118164,-14.211000442504883 -10.112000465393066,-20.948999404907227 -10.112000465393066,-20.927000045776367 C-10.112000465393066,-20.927000045776367 -12.359000205993652,-16.902999877929688 -12.359000205993652,-16.902999877929688 C-12.366999626159668,-16.888999938964844 -12.345999717712402,-16.854999542236328 -12.329999923706055,-16.84600067138672 C-12.329999923706055,-16.84600067138672 -10.758999824523926,-15.904999732971191 -10.758999824523926,-15.904999732971191 C-10.758999824523926,-15.904999732971191 -10.758999824523926,4.53000020980835 -10.758999824523926,4.53000020980835 C-10.758999824523926,4.53000020980835 -17.038000106811523,0.7689999938011169 -17.038000106811523,0.7689999938011169 C-17.038000106811523,0.7689999938011169 -17.038000106811523,-19.666000366210938 -17.038000106811523,-19.666000366210938 C-17.038000106811523,-19.666000366210938 -15.46500015258789,-18.722999572753906 -15.46500015258789,-18.722999572753906 C-15.449000358581543,-18.714000701904297 -15.437000274658203,-18.724000930786133 -15.437000274658203,-18.746000289916992 C-15.437000274658203,-18.746000289916992 -17.683000564575195,-25.483999252319336 -17.683000564575195,-25.461999893188477 C-17.683000564575195,-25.461999893188477 -17.68400001525879,-25.461999893188477 -17.68400001525879,-25.461999893188477z"></path></g></g><g class="2" transform="matrix(1.0700000524520874,0,0,1.0700000524520874,351.02288818359375,210.34848022460938)" opacity="1" style="display: block;"><g opacity="1" transform="matrix(1,0,0,1,146.32200622558594,-5.132999897003174)"><path fill="rgb(242,178,118)" fill-opacity="1" d=" M-99.76200103759766,21.259000778198242 C-99.76200103759766,21.259000778198242 21.23900032043457,74.69200134277344 21.23900032043457,74.69200134277344 C21.23900032043457,74.69200134277344 85.14600372314453,39.81999969482422 85.14600372314453,39.81999969482422 C85.14600372314453,39.81999969482422 -35.83599853515625,-10.07699966430664 -35.83599853515625,-10.07699966430664 C-35.83599853515625,-10.07699966430664 -99.76200103759766,21.259000778198242 -99.76200103759766,21.259000778198242z"></path></g><g opacity="1" transform="matrix(1,0,0,1,206.822998046875,17.121999740600586)"><path fill="rgb(218,148,81)" fill-opacity="1" d=" M23.63599967956543,17.180999755859375 C23.63599967956543,17.180999755859375 24.645999908447266,17.565000534057617 24.645999908447266,17.565000534057617 C24.645999908447266,17.565000534057617 24.549999237060547,17.642000198364258 24.549999237060547,17.642000198364258 C24.549999237060547,17.642000198364258 -39.21699905395508,52.483001708984375 -39.21699905395508,52.483001708984375 C-39.21699905395508,52.483001708984375 -40.07899856567383,52.14899826049805 -40.07899856567383,52.14899826049805 C-40.07899856567383,52.14899826049805 23.63599967956543,17.180999755859375 23.63599967956543,17.180999755859375z"></path></g><g opacity="1" transform="matrix(1,0,0,1,206.822998046875,17.121999740600586)"><path fill="rgb(218,148,81)" fill-opacity="0" d=" M-19.757999420166016,-24.684999465942383 C-19.757999420166016,-24.684999465942383 -20.04599952697754,-24.559999465942383 -20.04599952697754,-24.559999465942383 C-20.04599952697754,-24.559999465942383 -140.65899658203125,-74.44000244140625 -140.65899658203125,-74.44000244140625 C-140.65899658203125,-74.44000244140625 -140.51100158691406,-74.91799926757812 -140.51100158691406,-74.91799926757812 C-140.51100158691406,-74.91799926757812 -19.757999420166016,-24.684999465942383 -19.757999420166016,-24.684999465942383z"></path></g></g><g transform="matrix(1.0700000524520874,0,0,1.0700000524520874,351.02288818359375,210.3484649658203)" opacity="1" style="display: block;"><g opacity="1" transform="matrix(1,0,0,1,156.7790069580078,148.08200073242188)"><path fill="rgb(239,173,113)" fill-opacity="1" d=" M-117.38200378417969,-17.389999389648438 C-117.38200378417969,-17.389999389648438 -44.790000915527344,27.56100082397461 -44.790000915527344,27.56100082397461 C-44.790000915527344,27.56100082397461 83.91999816894531,-33.09700012207031 83.91999816894531,-33.09700012207031 C83.91999816894531,-33.09700012207031 10.782999992370605,-78.52300262451172 10.782999992370605,-78.52300262451172 C10.782999992370605,-78.52300262451172 -117.38200378417969,-17.389999389648438 -117.38200378417969,-17.389999389648438z"></path></g><g opacity="1" transform="matrix(1,0,0,1,93.59700012207031,179.5679931640625)"><path fill="rgb(228,154,83)" fill-opacity="1" d=" M-54.20000076293945,-48.875999450683594 C-54.20000076293945,-48.875999450683594 -54.20000076293945,-47.38199996948242 -54.20000076293945,-47.38199996948242 C-54.20000076293945,-47.38199996948242 18.43000030517578,-2.0859999656677246 18.43000030517578,-2.0859999656677246 C18.43000030517578,-2.0859999656677246 18.392000198364258,-3.924999952316284 18.392000198364258,-3.924999952316284 C18.392000198364258,-3.924999952316284 -54.20000076293945,-48.875999450683594 -54.20000076293945,-48.875999450683594z"></path></g><g opacity="1" transform="matrix(1,0,0,1,210.95899963378906,190.67599487304688)"><path fill="rgb(228,154,83)" fill-opacity="1" d=" M-98.93199920654297,-13.194000244140625 C-98.93199920654297,-13.194000244140625 29.586000442504883,-73.35399627685547 29.586000442504883,-73.35399627685547 C29.586000442504883,-73.35399627685547 29.739999771118164,-75.6520004272461 29.739999771118164,-75.6520004272461 C29.739999771118164,-75.6520004272461 -98.97000122070312,-14.994000434875488 -98.97000122070312,-14.994000434875488 C-98.97000122070312,-14.994000434875488 -98.93199920654297,-13.194000244140625 -98.93199920654297,-13.194000244140625z"></path></g></g><g transform="matrix(1.0700000524520874,0,0,1.0700000524520874,351.02288818359375,210.3484649658203)" opacity="1" style="display: block;"><g opacity="1" transform="matrix(1,0,0,1,-52.301998138427734,-9.49899959564209)"><path fill="rgb(233,169,110)" fill-opacity="1" d=" M-29.41699981689453,76.03299713134766 C-29.41699981689453,76.03299713134766 98.86199951171875,25.625 98.86199951171875,25.625 C98.86199951171875,25.625 39.33399963378906,-12.956000328063965 39.33399963378906,-12.956000328063965 C39.33399963378906,-12.956000328063965 -92.70800018310547,37.722999572753906 -92.70800018310547,37.722999572753906 C-92.70800018310547,37.722999572753906 -29.41699981689453,76.03299713134766 -29.41699981689453,76.03299713134766z"></path></g><g opacity="1" transform="matrix(1,0,0,1,-116.44100189208984,10.859000205993652)"><path fill="rgb(228,154,83)" fill-opacity="1" d=" M-28.56800079345703,19.15999984741211 C-28.56800079345703,19.15999984741211 33.46200180053711,55.946998596191406 33.46200180053711,55.946998596191406 C33.46200180053711,55.946998596191406 34.72200012207031,55.7130012512207 34.72200012207031,55.7130012512207 C34.72200012207031,55.7130012512207 -28.56800079345703,17.36400032043457 -28.56800079345703,17.36400032043457 C-28.56800079345703,17.36400032043457 -28.56800079345703,17.36400032043457 -28.56800079345703,17.36400032043457 C-28.56800079345703,17.36400032043457 -28.56800079345703,19.15999984741211 -28.56800079345703,19.15999984741211z"></path></g><g opacity="1" transform="matrix(1,0,0,1,-116.44100189208984,10.859000205993652)"><path fill="rgb(228,154,83)" fill-opacity="0" d=" M12.29699993133545,-10.071000099182129 C12.29699993133545,-10.071000099182129 144.5679931640625,-61.12099838256836 144.5679931640625,-61.12099838256836 C144.5679931640625,-61.12099838256836 145.2030029296875,-61.066001892089844 145.2030029296875,-61.066001892089844 C145.2030029296875,-61.066001892089844 13.258000373840332,-10.37600040435791 13.258000373840332,-10.37600040435791 C13.258000373840332,-10.37600040435791 13.258000373840332,-10.37600040435791 13.258000373840332,-10.37600040435791 C13.258000373840332,-10.37600040435791 12.29699993133545,-10.071000099182129 12.29699993133545,-10.071000099182129z"></path></g></g><g class="4" transform="matrix(1.0700000524520874,0,0,1.0700000524520874,351.02288818359375,210.34848022460938)" opacity="1" style="display: none;"><g opacity="1" transform="matrix(1,0,0,1,146.32200622558594,-5.132999897003174)"><path fill="rgb(242,178,118)" fill-opacity="1" d=" M-99.76200103759766,21.259000778198242 C-99.76200103759766,21.259000778198242 21.23900032043457,74.69200134277344 21.23900032043457,74.69200134277344 C21.23900032043457,74.69200134277344 77.6113510131836,15.518694877624512 77.6113510131836,15.518694877624512 C77.6113510131836,15.518694877624512 -43.37165069580078,-34.37830352783203 -43.37165069580078,-34.37830352783203 C-43.37165069580078,-34.37830352783203 -99.76200103759766,21.259000778198242 -99.76200103759766,21.259000778198242z"></path></g><g opacity="1" transform="matrix(1,0,0,1,206.822998046875,17.121999740600586)"><path fill="rgb(218,148,81)" fill-opacity="1" d=" M16.260766983032227,-6.938935279846191 C16.260766983032227,-6.938935279846191 17.109500885009766,-6.73799991607666 17.109500885009766,-6.73799991607666 C17.109500885009766,-6.73799991607666 17.029767990112305,-6.686400890350342 17.029767990112305,-6.686400890350342 C17.029767990112305,-6.686400890350342 -39.24873352050781,52.41073989868164 -39.24873352050781,52.41073989868164 C-39.24873352050781,52.41073989868164 -39.78186798095703,52.13273239135742 -39.78186798095703,52.13273239135742 C-39.78186798095703,52.13273239135742 16.260766983032227,-6.938935279846191 16.260766983032227,-6.938935279846191z"></path></g><g opacity="1" transform="matrix(1,0,0,1,206.822998046875,17.121999740600586)"><path fill="rgb(218,148,81)" fill-opacity="0" d=" M-19.757999420166016,-24.684999465942383 C-19.757999420166016,-24.684999465942383 -20.04599952697754,-24.559999465942383 -20.04599952697754,-24.559999465942383 C-20.04599952697754,-24.559999465942383 -140.65899658203125,-74.44000244140625 -140.65899658203125,-74.44000244140625 C-140.65899658203125,-74.44000244140625 -140.51100158691406,-74.91799926757812 -140.51100158691406,-74.91799926757812 C-140.51100158691406,-74.91799926757812 -19.757999420166016,-24.684999465942383 -19.757999420166016,-24.684999465942383z"></path></g></g><g class="3" transform="matrix(1.0700000524520874,0,0,1.0700000524520874,351.02288818359375,210.3484649658203)" opacity="1" style="display: none;"><g opacity="1" transform="matrix(1,0,0,1,156.7790069580078,148.08200073242188)"><path fill="rgb(209,149,95)" fill-opacity="1" d=" M-117.38200378417969,-17.389999389648438 C-117.38200378417969,-17.389999389648438 -163.0855712890625,-76.28782653808594 -163.0855712890625,-76.28782653808594 C-163.0855712890625,-76.28782653808594 -37.665645599365234,-132.95729064941406 -37.665645599365234,-132.95729064941406 C-37.665645599365234,-132.95729064941406 10.782999992370605,-78.52300262451172 10.782999992370605,-78.52300262451172 C10.782999992370605,-78.52300262451172 -117.38200378417969,-17.389999389648438 -117.38200378417969,-17.389999389648438z"></path></g><g opacity="1" transform="matrix(1,0,0,1,93.59700012207031,179.5679931640625)"><path fill="rgb(228,154,83)" fill-opacity="1" d=" M-54.478458404541016,-48.89400100708008 C-54.478458404541016,-48.89400100708008 -54.47087097167969,-48.87601852416992 -54.47087097167969,-48.87601852416992 C-54.47087097167969,-48.87601852416992 -100.13822174072266,-106.82366180419922 -100.13822174072266,-106.82366180419922 C-100.13822174072266,-106.82366180419922 -100.1093521118164,-107.55924987792969 -100.1093521118164,-107.55924987792969 C-100.1093521118164,-107.55924987792969 -54.478458404541016,-48.89400100708008 -54.478458404541016,-48.89400100708008z"></path></g><g opacity="1" transform="matrix(1,0,0,1,210.95899963378906,190.67599487304688)"><path fill="rgb(228,154,83)" fill-opacity="0" d=" M-217.70054626464844,-116.96417999267578 C-217.70054626464844,-116.96417999267578 -91.99964141845703,-173.21429443359375 -91.99964141845703,-173.21429443359375 C-91.99964141845703,-173.21429443359375 -91.84664154052734,-175.5127410888672 -91.84664154052734,-175.5127410888672 C-91.84664154052734,-175.5127410888672 -217.26612854003906,-118.84382629394531 -217.26612854003906,-118.84382629394531 C-217.26612854003906,-118.84382629394531 -217.70054626464844,-116.96417999267578 -217.70054626464844,-116.96417999267578z"></path></g></g><g class="3" transform="matrix(1.0700000524520874,0,0,1.0700000524520874,351.02288818359375,210.3484649658203)" opacity="1" style="display: none;"><g opacity="1" transform="matrix(1,0,0,1,-52.301998138427734,-9.49899959564209)"><path fill="rgb(149,100,58)" fill-opacity="1" d=" M-29.244598388671875,75.98685455322266 C-29.244598388671875,75.98685455322266 98.86199951171875,25.625 98.86199951171875,25.625 C98.86199951171875,25.625 127.22020721435547,14.714449882507324 127.22020721435547,14.714449882507324 C127.22020721435547,14.714449882507324 -0.9401772022247314,66.35899353027344 -0.9401772022247314,66.35899353027344 C-0.9401772022247314,66.35899353027344 -29.244598388671875,75.98685455322266 -29.244598388671875,75.98685455322266z"></path></g><g opacity="1" transform="matrix(1,0,0,1,-116.44100189208984,10.859000205993652)"><path fill="rgb(228,154,83)" fill-opacity="0" d=" M63.24782180786133,47.73442077636719 C63.24782180786133,47.73442077636719 35.9194450378418,55.8150634765625 35.9194450378418,55.8150634765625 C35.9194450378418,55.8150634765625 34.9979362487793,55.586509704589844 34.9979362487793,55.586509704589844 C34.9979362487793,55.586509704589844 63.19906234741211,46.00099182128906 63.19906234741211,46.00099182128906 C63.19906234741211,46.00099182128906 63.19906234741211,46.00099182128906 63.19906234741211,46.00099182128906 C63.19906234741211,46.00099182128906 63.24782180786133,47.73442077636719 63.24782180786133,47.73442077636719z"></path></g><g opacity="1" transform="matrix(1,0,0,1,-116.44100189208984,10.859000205993652)"><path fill="rgb(228,154,83)" fill-opacity="1" d=" M63.10271453857422,47.358436584472656 C63.10271453857422,47.358436584472656 190.2381134033203,-4.377729415893555 190.2381134033203,-4.377729415893555 C190.2381134033203,-4.377729415893555 191.11013793945312,-5.820130348205566 191.11013793945312,-5.820130348205566 C191.11013793945312,-5.820130348205566 63.0067138671875,45.803436279296875 63.0067138671875,45.803436279296875 C63.0067138671875,45.803436279296875 63.0067138671875,45.803436279296875 63.0067138671875,45.803436279296875 C63.0067138671875,45.803436279296875 63.10271453857422,47.358436584472656 63.10271453857422,47.358436584472656z"></path></g></g><g class="2" transform="matrix(1.0700000524520874,0,0,1.0700000524520874,351.02288818359375,210.3484649658203)" opacity="1" style="display: none;"><g opacity="1" transform="matrix(1,0,0,1,-52.301998138427734,-9.49899959564209)"><path fill="rgb(226,163,105)" fill-opacity="1" d=" M-29.107999801635742,75.95028686523438 C-29.107999801635742,75.95028686523438 98.86199951171875,25.625 98.86199951171875,25.625 C98.86199951171875,25.625 133.46871948242188,22.62071418762207 133.46871948242188,22.62071418762207 C133.46871948242188,22.62071418762207 5.945857048034668,75.03028869628906 5.945857048034668,75.03028869628906 C5.945857048034668,75.03028869628906 -29.107999801635742,75.95028686523438 -29.107999801635742,75.95028686523438z"></path></g><g opacity="1" transform="matrix(1,0,0,1,-116.44100189208984,10.859000205993652)"><path fill="rgb(228,154,83)" fill-opacity="1" d=" M70.13385772705078,56.43299865722656 C70.13385772705078,56.43299865722656 36.03785705566406,55.59642791748047 36.03785705566406,55.59642791748047 C36.03785705566406,55.59642791748047 35.21657180786133,55.48628616333008 35.21657180786133,55.48628616333008 C35.21657180786133,55.48628616333008 70.08528900146484,54.67228698730469 70.08528900146484,54.67228698730469 C70.08528900146484,54.67228698730469 70.08528900146484,54.67228698730469 70.08528900146484,54.67228698730469 C70.08528900146484,54.67228698730469 70.13385772705078,56.43299865722656 70.13385772705078,56.43299865722656z"></path></g><g opacity="1" transform="matrix(1,0,0,1,-116.44100189208984,10.859000205993652)"><path fill="rgb(228,154,83)" fill-opacity="1" d=" M70.13375091552734,56.311500549316406 C70.13375091552734,56.311500549316406 197.23599243164062,3.6387500762939453 197.23599243164062,3.6387500762939453 C197.23599243164062,3.6387500762939453 197.58250427246094,2.311500072479248 197.58250427246094,2.311500072479248 C197.58250427246094,2.311500072479248 70.03775024414062,54.756500244140625 70.03775024414062,54.756500244140625 C70.03775024414062,54.756500244140625 70.03775024414062,54.756500244140625 70.03775024414062,54.756500244140625 C70.03775024414062,54.756500244140625 70.13375091552734,56.311500549316406 70.13375091552734,56.311500549316406z"></path></g></g><g class="2" transform="matrix(1.0700000524520874,0,0,1.0700000524520874,351.02288818359375,210.3484649658203)" opacity="1" style="display: none;"><g opacity="1" transform="matrix(1,0,0,1,156.7790069580078,148.08200073242188)"><path fill="rgb(151,101,59)" fill-opacity="1" d=" M-117.38200378417969,-17.389999389648438 C-117.38200378417969,-17.389999389648438 -74.53316497802734,-41.73383331298828 -74.53316497802734,-41.73383331298828 C-74.53316497802734,-41.73383331298828 55.33016586303711,-101.49400329589844 55.33016586303711,-101.49400329589844 C55.33016586303711,-101.49400329589844 10.782999992370605,-78.52300262451172 10.782999992370605,-78.52300262451172 C10.782999992370605,-78.52300262451172 -117.38200378417969,-17.389999389648438 -117.38200378417969,-17.389999389648438z"></path></g><g opacity="1" transform="matrix(1,0,0,1,93.59700012207031,179.5679931640625)"><path fill="rgb(228,154,83)" fill-opacity="1" d=" M-54.20000076293945,-48.875999450683594 C-54.20000076293945,-48.875999450683594 -54.20000076293945,-47.38199996948242 -54.20000076293945,-47.38199996948242 C-54.20000076293945,-47.38199996948242 -11.312999725341797,-71.3808364868164 -11.312999725341797,-71.3808364868164 C-11.312999725341797,-71.3808364868164 -11.351166725158691,-73.21983337402344 -11.351166725158691,-73.21983337402344 C-11.351166725158691,-73.21983337402344 -54.20000076293945,-48.875999450683594 -54.20000076293945,-48.875999450683594z"></path></g><g opacity="1" transform="matrix(1,0,0,1,210.95899963378906,190.67599487304688)"><path fill="rgb(228,154,83)" fill-opacity="1" d=" M-128.6751708984375,-82.48883056640625 C-128.6751708984375,-82.48883056640625 0.9961666464805603,-141.75100708007812 0.9961666464805603,-141.75100708007812 C0.9961666464805603,-141.75100708007812 1.149999976158142,-144.04983520507812 1.149999976158142,-144.04983520507812 C1.149999976158142,-144.04983520507812 -128.71400451660156,-84.28900146484375 -128.71400451660156,-84.28900146484375 C-128.71400451660156,-84.28900146484375 -128.6751708984375,-82.48883056640625 -128.6751708984375,-82.48883056640625z"></path></g></g><g class="3" transform="matrix(1.0700000524520874,0,0,1.0700000524520874,351.02288818359375,210.34848022460938)" opacity="1" style="display: none;"><g opacity="1" transform="matrix(1,0,0,1,146.32200622558594,-5.132999897003174)"><path fill="rgb(242,178,118)" fill-opacity="1" d=" M-99.28099822998047,21.06599998474121 C-99.28099822998047,21.06599998474121 20.951000213623047,74.16300201416016 20.951000213623047,74.16300201416016 C20.951000213623047,74.16300201416016 -43.604000091552734,106.35800170898438 -43.604000091552734,106.35800170898438 C-43.604000091552734,106.35800170898438 -161.99000549316406,46.07699966430664 -161.99000549316406,46.07699966430664 C-161.99000549316406,46.07699966430664 -99.28099822998047,21.06599998474121 -99.28099822998047,21.06599998474121z"></path></g><g opacity="1" transform="matrix(1,0,0,1,206.822998046875,17.121999740600586)"><path fill="rgb(218,148,81)" fill-opacity="1" d=" M-104.39299774169922,82.56500244140625 C-104.39299774169922,82.56500244140625 -104.39299774169922,82.56500244140625 -104.39299774169922,82.56500244140625 C-104.39299774169922,82.56500244140625 -104.48899841308594,84.51699829101562 -104.48899841308594,84.51699829101562 C-104.48899841308594,84.51699829101562 -39.74599838256836,53.25199890136719 -39.74599838256836,53.25199890136719 C-39.74599838256836,53.25199890136719 -39.742000579833984,52.005001068115234 -39.742000579833984,52.005001068115234 C-39.742000579833984,52.005001068115234 -104.39299774169922,82.56500244140625 -104.39299774169922,82.56500244140625z"></path></g><g opacity="1" transform="matrix(1,0,0,1,206.822998046875,17.121999740600586)"><path fill="rgb(218,148,81)" fill-opacity="1" d=" M-104.52899932861328,83.04199981689453 C-104.52899932861328,83.04199981689453 -104.76899719238281,84.68800354003906 -104.76899719238281,84.68800354003906 C-104.76899719238281,84.68800354003906 -223.11099243164062,24.672000885009766 -223.11099243164062,24.672000885009766 C-223.11099243164062,24.672000885009766 -222.64199829101562,23.874000549316406 -222.64199829101562,23.874000549316406 C-222.64199829101562,23.874000549316406 -104.52899932861328,83.04199981689453 -104.52899932861328,83.04199981689453z"></path></g></g><g transform="matrix(1.0700000524520874,0,0,1.0700000524520874,351.02288818359375,210.34848022460938)" opacity="1" style="display: none;"><g opacity="1" transform="matrix(1,0,0,1,146.32200622558594,-5.132999897003174)"><path fill="rgb(242,178,118)" fill-opacity="1" d=" M-99.4446029663086,21.085599899291992 C-99.4446029663086,21.085599899291992 21.23900032043457,74.69200134277344 21.23900032043457,74.69200134277344 C21.23900032043457,74.69200134277344 -18.23819923400879,58.896400451660156 -18.23819923400879,58.896400451660156 C-18.23819923400879,58.896400451660156 -137.37399291992188,4.385200023651123 -137.37399291992188,4.385200023651123 C-137.37399291992188,4.385200023651123 -99.4446029663086,21.085599899291992 -99.4446029663086,21.085599899291992z"></path></g><g opacity="1" transform="matrix(1,0,0,1,206.822998046875,17.121999740600586)"><path fill="rgb(218,148,81)" fill-opacity="1" d=" M-78.73860168457031,36.642398834228516 C-78.73860168457031,36.642398834228516 -78.73860168457031,39.1703987121582 -78.73860168457031,39.1703987121582 C-78.73860168457031,39.1703987121582 -38.30400085449219,53.20399856567383 -38.30400085449219,53.20399856567383 C-38.30400085449219,53.20399856567383 -39.26100158691406,52.4379997253418 -39.26100158691406,52.4379997253418 C-39.26100158691406,52.4379997253418 -78.73860168457031,36.642398834228516 -78.73860168457031,36.642398834228516z"></path></g><g opacity="1" transform="matrix(1,0,0,1,206.822998046875,17.121999740600586)"><path fill="rgb(218,148,81)" fill-opacity="1" d=" M-78.72000122070312,36.74800109863281 C-78.72000122070312,36.74800109863281 -78.72000122070312,39.08399963378906 -78.72000122070312,39.08399963378906 C-78.72000122070312,39.08399963378906 -197.87100219726562,-16.74799919128418 -197.87100219726562,-16.74799919128418 C-197.87100219726562,-16.74799919128418 -197.81900024414062,-17.85099983215332 -197.81900024414062,-17.85099983215332 C-197.81900024414062,-17.85099983215332 -78.72000122070312,36.74800109863281 -78.72000122070312,36.74800109863281z"></path></g></g><g transform="matrix(1.0700000524520874,0,0,1.0700000524520874,351.02288818359375,210.34848022460938)" opacity="1" style="display: block;"><g opacity="1" transform="matrix(1,0,0,1,-73.27300262451172,81.77799987792969)"><path fill="rgb(239,173,113)" fill-opacity="1" d=" M112.66999816894531,48.91400146484375 C112.66999816894531,48.91400146484375 -8.446000099182129,-15.244999885559082 -8.446000099182129,-15.244999885559082 C-8.446000099182129,-15.244999885559082 -71.13200378417969,27.239999771118164 -71.13200378417969,27.239999771118164 C-71.13200378417969,27.239999771118164 50.29399871826172,91.81099700927734 50.29399871826172,91.81099700927734 C50.29399871826172,91.81099700927734 112.66999816894531,48.91400146484375 112.66999816894531,48.91400146484375 C112.66999816894531,48.91400146484375 112.66999816894531,48.91400146484375 112.66999816894531,48.91400146484375z"></path></g><g opacity="1" transform="matrix(1,0,0,1,-125.61499786376953,67.14600372314453)"><path fill="rgb(228,154,83)" fill-opacity="1" d=" M102.63600158691406,108.12799835205078 C102.63600158691406,108.12799835205078 102.63600158691406,106.44300079345703 102.63600158691406,106.44300079345703 C102.63600158691406,106.44300079345703 -18.790000915527344,41.87200164794922 -18.790000915527344,41.87200164794922 C-18.790000915527344,41.87200164794922 -18.790000915527344,43.2130012512207 -18.790000915527344,43.2130012512207 C-18.790000915527344,43.2130012512207 102.63600158691406,108.12799835205078 102.63600158691406,108.12799835205078 C102.63600158691406,108.12799835205078 102.63600158691406,108.12799835205078 102.63600158691406,108.12799835205078z"></path></g><g opacity="1" transform="matrix(1,0,0,1,-12.944999694824219,115.96399688720703)"><path fill="rgb(228,154,83)" fill-opacity="1" d=" M-10.034000396728516,57.625 C-10.034000396728516,57.625 -10.034000396728516,59.310001373291016 -10.034000396728516,59.310001373291016 C-10.034000396728516,59.310001373291016 52.34199905395508,16.222000122070312 52.34199905395508,16.222000122070312 C52.34199905395508,16.222000122070312 52.34199905395508,14.727999687194824 52.34199905395508,14.727999687194824 C52.34199905395508,14.727999687194824 -10.034000396728516,57.625 -10.034000396728516,57.625z"></path></g></g></g></svg>
