<svg xmlns="http://www.w3.org/2000/svg" enable-background="new 0 0 24 24" viewBox="0 0 24 24">
  <symbol id="add">
    <title>add</title>
    <path d="M19,13h-6v6h-2v-6H5v-2h6V5h2v6h6V13z" />
  </symbol>

  <symbol id="user-account">
    <title>user account</title>
    <path d="M0,0h24v24H0V0z" fill="none"/>
    <path d="M12,2C6.48,2,2,6.48,2,12s4.48,10,10,10s10-4.48,10-10S17.52,2,12,2z M12,6c1.93,0,3.5,1.57,3.5,3.5S13.93,13,12,13 s-3.5-1.57-3.5-3.5S10.07,6,12,6z M12,20c-2.03,0-4.43-0.82-6.14-2.88C7.55,15.8,9.68,15,12,15s4.45,0.8,6.14,2.12 C16.43,19.18,14.03,20,12,20z"/>
  </symbol>

  <symbol id="accessibility">
    <title>accessibility</title>
    <path d="M0 0h24v24H0z" fill="none"/>
    <path d="M12 2c1.1 0 2 .9 2 2s-.9 2-2 2-2-.9-2-2 .9-2 2-2zm9 7h-6v13h-2v-6h-2v6H9V9H3V7h18v2z"/>
  </symbol>

  <symbol id="error-outline">
    <title>error outline</title>
    <path d="M0 0h24v24H0V0z" fill="none" />
    <path d="M11 15h2v2h-2zm0-8h2v6h-2zm.99-5C6.47 2 2 6.48 2 12s4.47 10 9.99 10C17.52 22 22 17.52 22 12S17.52 2 11.99 2zM12 20c-4.42 0-8-3.58-8-8s3.58-8 8-8 8 3.58 8 8-3.58 8-8 8z" />
  </symbol>
</svg>
